<svg width="84" height="84" viewBox="0 0 84 84" fill="none" xmlns="http://www.w3.org/2000/svg">
<rect x="0.5" y="0.5" width="83" height="83" rx="41.5" stroke="#F5CCA0"/>
<path d="M56.7165 35.3499L45.7999 26.6166C43.6665 24.9166 40.3332 24.8999 38.2165 26.5999L27.2999 35.3499C25.7332 36.5999 24.7832 39.0999 25.1165 41.0666L27.2165 53.6333C27.6999 56.4499 30.3165 58.6666 33.1665 58.6666H50.8332C53.6499 58.6666 56.3165 56.3999 56.7999 53.6166L58.8999 41.0499C59.1999 39.0999 58.2499 36.5999 56.7165 35.3499ZM43.2499 51.9999C43.2499 52.6833 42.6832 53.2499 41.9999 53.2499C41.3165 53.2499 40.7499 52.6833 40.7499 51.9999V46.9999C40.7499 46.3166 41.3165 45.7499 41.9999 45.7499C42.6832 45.7499 43.2499 46.3166 43.2499 46.9999V51.9999Z" fill="#994D1C"/>
</svg>
