<svg width="84" height="85" viewBox="0 0 84 85" fill="none" xmlns="http://www.w3.org/2000/svg">
<rect x="0.5" y="1" width="83" height="83" rx="41.5" stroke="#EDEDED"/>
<path d="M56.7165 35.8502L45.7999 27.1169C43.6665 25.4169 40.3332 25.4002 38.2165 27.1002L27.2999 35.8502C25.7332 37.1002 24.7832 39.6002 25.1165 41.5669L27.2165 54.1335C27.6999 56.9502 30.3165 59.1669 33.1665 59.1669H50.8332C53.6499 59.1669 56.3165 56.9002 56.7999 54.1169L58.8999 41.5502C59.1999 39.6002 58.2499 37.1002 56.7165 35.8502ZM43.2499 52.5002C43.2499 53.1835 42.6832 53.7502 41.9999 53.7502C41.3165 53.7502 40.7499 53.1835 40.7499 52.5002V47.5002C40.7499 46.8169 41.3165 46.2502 41.9999 46.2502C42.6832 46.2502 43.2499 46.8169 43.2499 47.5002V52.5002Z" fill="#A5A5A5"/>
</svg>
