<svg width="84" height="85" viewBox="0 0 84 85" fill="none" xmlns="http://www.w3.org/2000/svg">
<rect x="0.5" y="1" width="83" height="83" rx="41.5" stroke="#F5CCA0"/>
<path d="M57.5172 33.9643L50.5359 26.9815C50.3038 26.7493 50.0282 26.5651 49.7248 26.4394C49.4215 26.3137 49.0963 26.249 48.768 26.249C48.4396 26.249 48.1145 26.3137 47.8111 26.4394C47.5078 26.5651 47.2322 26.7493 47 26.9815L27.7328 46.2502C27.4997 46.4815 27.3148 46.7569 27.189 47.0602C27.0632 47.3636 26.999 47.689 27 48.0174V55.0002C27 55.6632 27.2634 56.2991 27.7322 56.768C28.2011 57.2368 28.837 57.5002 29.5 57.5002H36.4828C36.8113 57.5013 37.1366 57.437 37.44 57.3112C37.7434 57.1854 38.0187 57.0006 38.25 56.7674L57.5172 37.5002C57.7494 37.2681 57.9336 36.9924 58.0593 36.6891C58.185 36.3857 58.2496 36.0606 58.2496 35.7322C58.2496 35.4039 58.185 35.0787 58.0593 34.7754C57.9336 34.472 57.7494 34.1964 57.5172 33.9643ZM52 39.4815L45.0172 32.5002L48.7672 28.7502L55.75 35.7315L52 39.4815Z" fill="#994D1C"/>
</svg>
