<svg width="84" height="84" viewBox="0 0 84 84" fill="none" xmlns="http://www.w3.org/2000/svg">
<rect x="0.5" y="0.5" width="83" height="83" rx="41.5" stroke="#EDEDED"/>
<path d="M57.5172 33.464L50.5359 26.4812C50.3038 26.249 50.0282 26.0648 49.7248 25.9391C49.4215 25.8135 49.0963 25.7488 48.768 25.7488C48.4396 25.7488 48.1145 25.8135 47.8111 25.9391C47.5078 26.0648 47.2322 26.249 47 26.4812L27.7328 45.75C27.4997 45.9813 27.3148 46.2566 27.189 46.56C27.0632 46.8634 26.999 47.1887 27 47.5172V54.5C27 55.163 27.2634 55.7989 27.7322 56.2677C28.2011 56.7366 28.837 57 29.5 57H36.4828C36.8113 57.001 37.1366 56.9368 37.44 56.811C37.7434 56.6852 38.0187 56.5003 38.25 56.2672L57.5172 37C57.7494 36.7678 57.9336 36.4922 58.0593 36.1888C58.185 35.8855 58.2496 35.5603 58.2496 35.232C58.2496 34.9036 58.185 34.5785 58.0593 34.2752C57.9336 33.9718 57.7494 33.6962 57.5172 33.464ZM52 38.9812L45.0172 32L48.7672 28.25L55.75 35.2312L52 38.9812Z" fill="#A5A5A5"/>
</svg>
