<svg width="84" height="84" viewBox="0 0 84 84" fill="none" xmlns="http://www.w3.org/2000/svg">
<rect x="0.5" y="0.5" width="83" height="83" rx="41.5" stroke="#EDEDED"/>
<path d="M41.9999 25.75C39.1944 25.7494 36.4365 26.4751 33.9947 27.8566C31.5528 29.2381 29.5103 31.2282 28.0658 33.6333C26.6213 36.0384 25.8241 38.7764 25.7517 41.581C25.6794 44.3856 26.3344 47.1612 27.653 49.6375L25.8796 54.9578C25.7327 55.3983 25.7114 55.871 25.818 56.3229C25.9247 56.7749 26.1551 57.1881 26.4834 57.5165C26.8117 57.8448 27.225 58.0752 27.677 58.1819C28.1289 58.2885 28.6016 58.2672 29.0421 58.1203L34.3624 56.3469C36.5417 57.506 38.9565 58.1534 41.4234 58.24C43.8903 58.3266 46.3445 57.85 48.5997 56.8465C50.8549 55.8429 52.8518 54.3388 54.439 52.4483C56.0261 50.5577 57.1616 48.3304 57.7595 45.9355C58.3573 43.5406 58.4016 41.0409 57.8891 38.6263C57.3767 36.2117 56.3208 33.9455 54.8018 31.9999C53.2828 30.0542 51.3404 28.4802 49.1222 27.3973C46.904 26.3144 44.4683 25.751 41.9999 25.75ZM46.9999 45.75H36.9999C36.6684 45.75 36.3504 45.6183 36.116 45.3839C35.8816 45.1495 35.7499 44.8315 35.7499 44.5C35.7499 44.1685 35.8816 43.8505 36.116 43.6161C36.3504 43.3817 36.6684 43.25 36.9999 43.25H46.9999C47.3314 43.25 47.6493 43.3817 47.8838 43.6161C48.1182 43.8505 48.2499 44.1685 48.2499 44.5C48.2499 44.8315 48.1182 45.1495 47.8838 45.3839C47.6493 45.6183 47.3314 45.75 46.9999 45.75ZM46.9999 40.75H36.9999C36.6684 40.75 36.3504 40.6183 36.116 40.3839C35.8816 40.1495 35.7499 39.8315 35.7499 39.5C35.7499 39.1685 35.8816 38.8505 36.116 38.6161C36.3504 38.3817 36.6684 38.25 36.9999 38.25H46.9999C47.3314 38.25 47.6493 38.3817 47.8838 38.6161C48.1182 38.8505 48.2499 39.1685 48.2499 39.5C48.2499 39.8315 48.1182 40.1495 47.8838 40.3839C47.6493 40.6183 47.3314 40.75 46.9999 40.75Z" fill="#A5A5A5"/>
</svg>
