<svg width="33" height="32" viewBox="0 0 33 32" fill="none" xmlns="http://www.w3.org/2000/svg">
<path d="M26.1533 7.43975H25.62L21.1133 2.93309C20.7533 2.57309 20.1666 2.57309 19.7933 2.93309C19.4333 3.29309 19.4333 3.87975 19.7933 4.25309L22.98 7.43975H10.02L13.2066 4.25309C13.5666 3.89309 13.5666 3.30642 13.2066 2.93309C12.8466 2.57309 12.26 2.57309 11.8866 2.93309L7.39329 7.43975H6.85996C5.65996 7.43975 3.16663 7.43975 3.16663 10.8531C3.16663 12.1464 3.43329 12.9998 3.99329 13.5598C4.31329 13.8931 4.69996 14.0664 5.11329 14.1598C5.49996 14.2531 5.91329 14.2664 6.31329 14.2664H26.6866C27.1 14.2664 27.4866 14.2398 27.86 14.1598C28.98 13.8931 29.8333 13.0931 29.8333 10.8531C29.8333 7.43975 27.34 7.43975 26.1533 7.43975Z" fill="white"/>
<path d="M25.9 16H6.99334C6.16667 16 5.54 16.7333 5.67334 17.5467L6.79334 24.4C7.16667 26.6933 8.16667 29.3333 12.6067 29.3333H20.0867C24.58 29.3333 25.38 27.08 25.86 24.56L27.2067 17.5867C27.3667 16.76 26.74 16 25.9 16ZM16.5 26C13.38 26 10.8333 23.4533 10.8333 20.3333C10.8333 19.7867 11.2867 19.3333 11.8333 19.3333C12.38 19.3333 12.8333 19.7867 12.8333 20.3333C12.8333 22.36 14.4733 24 16.5 24C18.5267 24 20.1667 22.36 20.1667 20.3333C20.1667 19.7867 20.62 19.3333 21.1667 19.3333C21.7133 19.3333 22.1667 19.7867 22.1667 20.3333C22.1667 23.4533 19.62 26 16.5 26Z" fill="white"/>
</svg>
