<svg width="83" height="27" viewBox="0 0 83 27" fill="none" xmlns="http://www.w3.org/2000/svg">
<path d="M12.265 20.2356C12.265 19.1993 12.2762 16.4295 12.2507 16.0882C12.2729 11.9666 9.2762 9.05917 7.383 9.28582C6.07296 9.39951 4.97506 9.93368 4.38556 11.4704C3.83918 12.9025 4.32766 14.8075 6.14422 15.2545C8.08665 15.7345 9.22089 16.1339 10.0417 16.6974C11.0475 17.3872 11.8686 18.7052 11.8904 20.2372" fill="#0060AF"/>
<path d="M13.0398 26.5C9.61485 26.5 6.09494 25.6564 2.57973 23.988L2.49347 23.9456L2.45222 23.8577C0.874739 20.5279 0.0405273 16.8858 0.0405273 13.3226C0.0405273 9.76469 0.840517 6.27853 2.41917 2.95318L2.46253 2.86481L2.55043 2.82074C5.80219 1.2803 9.30029 0.5 12.9508 0.5C16.3514 0.5 19.9831 1.36867 23.4516 3.01646L23.5407 3.05608L23.5817 3.14608C25.1894 6.5373 26.0373 10.1784 26.0373 13.6826C26.0373 17.1732 25.2232 20.6624 23.6136 24.0515L23.5712 24.1406L23.4816 24.1819C20.2796 25.6977 16.6685 26.5 13.0398 26.5ZM2.90507 23.5314C6.31996 25.1377 9.72572 25.949 13.0398 25.949C16.5539 25.949 20.0487 25.1808 23.1596 23.7248C24.705 20.4407 25.4883 17.0607 25.4883 13.6826C25.4883 10.2909 24.6707 6.7628 23.1242 3.47142C19.7581 1.88902 16.2426 1.04989 12.9508 1.04989C9.41655 1.04989 6.02908 1.79948 2.87553 3.27828C1.36181 6.50144 0.591356 9.87883 0.591356 13.3226C0.591356 16.7729 1.39205 20.3024 2.90507 23.5314Z" fill="#0060AF"/>
<path d="M11.4526 20.236C11.4589 18.9077 10.7176 17.7331 9.74857 17.1019C8.88905 16.5441 7.73512 16.1775 5.87356 15.7054C5.29812 15.5582 4.69619 15.2312 4.50985 14.8145C4.01691 15.3111 3.92738 16.4278 4.0141 17.0803C4.11489 17.8356 4.99739 19.0802 6.32617 19.129C7.13765 19.1615 8.16359 18.9543 8.65559 18.8498C9.50433 18.6665 10.8472 19.1981 11.0609 20.2344" fill="#0060AF"/>
<path d="M12.951 2.86133C10.698 2.86133 8.75178 4.34716 8.75881 6.91823C8.76584 9.08029 10.5046 10.2377 11.125 11.0644C12.0626 12.3102 12.5701 13.7848 12.6228 16.0411C12.6638 17.8368 12.6617 19.61 12.6709 20.2384H13.1682C13.1596 19.5809 13.1371 17.6985 13.1628 15.9856C13.1966 13.7286 13.7223 12.3102 14.6604 11.0644C15.2862 10.2377 17.0236 9.08029 17.0273 6.91823C17.0357 4.34716 15.0907 2.86133 12.8396 2.86133" fill="#0060AF"/>
<path d="M13.5223 20.2356C13.5223 19.1993 13.5105 16.4295 13.5356 16.0882C13.5136 11.9666 16.5085 9.05917 18.4033 9.28582C19.7133 9.39951 20.8101 9.93368 21.4012 11.4704C21.9471 12.9025 21.4558 14.8075 19.6414 15.2545C17.698 15.7345 16.5652 16.1339 15.7422 16.6974C14.7376 17.3872 13.9739 18.7052 13.9505 20.2372" fill="#0060AF"/>
<path d="M14.3335 20.236C14.3265 18.9077 15.0677 17.7331 16.0338 17.1019C16.8969 16.5441 18.0522 16.1775 19.9121 15.7054C20.4888 15.5582 21.09 15.2312 21.273 14.8145C21.7683 15.3111 21.8576 16.4278 21.7709 17.0803C21.668 17.8356 20.7878 19.0802 19.4614 19.129C18.6502 19.1615 17.6188 18.9543 17.1289 18.8498C16.2835 18.6665 14.9369 19.1981 14.7222 20.2344" fill="#0060AF"/>
<path d="M15.029 24.5252L14.7407 22.4215L15.4366 22.316C15.6061 22.2928 15.8124 22.3223 15.8949 22.4285C15.9861 22.5394 16.014 22.631 16.0315 22.7764C16.0578 22.9561 16.0057 23.1641 15.8032 23.2677V23.274C16.0294 23.274 16.1661 23.4364 16.2057 23.7106C16.2115 23.7685 16.2287 23.9085 16.2115 24.0252C16.1656 24.303 15.9999 24.3923 15.7203 24.4314L15.029 24.5252ZM15.477 24.1485C15.5595 24.1367 15.6431 24.1323 15.7085 24.0906C15.8086 24.0252 15.7995 23.8853 15.7857 23.7815C15.7507 23.5531 15.6912 23.4664 15.4491 23.5023L15.2969 23.5257L15.3933 24.1602L15.477 24.1485ZM15.3312 23.1765C15.4233 23.1615 15.5482 23.1505 15.6002 23.063C15.6274 23.0047 15.6624 22.9582 15.6394 22.8284C15.611 22.6744 15.5599 22.579 15.3644 22.616L15.1823 22.6453L15.254 23.1844" fill="#0060AF"/>
<path d="M18.0435 23.2602C18.0489 23.2994 18.0552 23.343 18.0576 23.3821C18.1138 23.7658 18.0435 24.0834 17.6122 24.1708C16.9747 24.2937 16.8525 23.8975 16.7403 23.343L16.6805 23.0429C16.5926 22.5123 16.5549 22.1105 17.1765 21.9868C17.5269 21.9228 17.7585 22.0622 17.8548 22.411C17.8698 22.463 17.8886 22.5146 17.8956 22.5669L17.5142 22.6456C17.4702 22.5146 17.4118 22.2805 17.2402 22.3001C16.9322 22.3372 17.034 22.7204 17.0656 22.8805L17.1802 23.4564C17.2147 23.6306 17.2831 23.9088 17.5496 23.8551C17.766 23.8117 17.6717 23.4747 17.6525 23.3366" fill="#0060AF"/>
<path d="M18.6549 23.8969L18.5229 21.7198L19.0353 21.5635L20.1096 23.4569L19.7062 23.5776L19.4516 23.0964L19.0037 23.231L19.0616 23.778L18.6549 23.8969ZM18.9662 22.8794L19.2899 22.7856L18.86 21.9047" fill="#0060AF"/>
<path d="M5.99974 22.25C6.16007 21.7367 6.30375 21.3588 6.91552 21.5267C7.24297 21.6181 7.44596 21.7625 7.43635 22.1429C7.43477 22.2275 7.40681 22.3138 7.38853 22.3975L7.00764 22.2922C7.05757 22.0822 7.08921 21.9155 6.83044 21.8359C6.53135 21.7538 6.45845 22.1164 6.4172 22.273L6.26227 22.8437C6.21304 23.0132 6.15398 23.2933 6.4172 23.3655C6.63472 23.4241 6.76668 23.2106 6.84544 22.8988L6.57893 22.8283L6.67105 22.498L7.29759 22.6996L7.00014 23.7996L6.71183 23.7213L6.77676 23.4888H6.76855C6.63589 23.6789 6.47392 23.6988 6.33211 23.6716C5.70557 23.5022 5.77097 23.0927 5.92051 22.5456" fill="#0060AF"/>
<path d="M8.33216 23.1802L8.14347 24.0751L7.71875 23.9832L8.17137 21.8936L8.89541 22.0572C9.3192 22.1486 9.44718 22.3373 9.38717 22.7257C9.35295 22.9486 9.24302 23.1888 8.97464 23.1694L8.97182 23.1657C9.19872 23.2452 9.21794 23.3596 9.17833 23.5574C9.16122 23.6415 9.04331 24.1523 9.12465 24.2348L9.12746 24.2974L8.68797 24.1828C8.66969 24.0412 8.7318 23.7866 8.75641 23.6458C8.78126 23.5211 8.82087 23.3453 8.6943 23.2792C8.59515 23.2264 8.55835 23.229 8.44631 23.2032L8.33216 23.1802ZM8.40459 22.8565L8.69055 22.9336C8.86424 22.9587 8.96081 22.8686 8.99503 22.6589C9.02597 22.4664 8.98589 22.3912 8.83001 22.3539L8.52343 22.2918" fill="#0060AF"/>
<path d="M11.0562 22.3594L11.4762 22.4081L11.2953 23.8771C11.2074 24.3428 11.0274 24.5465 10.515 24.4828C9.99369 24.4169 9.86993 24.1795 9.90158 23.71L10.0837 22.2422L10.507 22.2907L10.3254 23.7257C10.3061 23.8815 10.27 24.1124 10.5473 24.1403C10.7932 24.1591 10.849 23.9962 10.8767 23.7936" fill="#0060AF"/>
<path d="M11.9395 24.5626L12.0658 22.4619L12.8728 22.4968C13.2542 22.5156 13.354 22.8271 13.3421 23.1243C13.331 23.305 13.2746 23.5068 13.1171 23.6163C12.9879 23.7094 12.8219 23.7314 12.668 23.7239L12.405 23.7093L12.3525 24.5897L11.9395 24.5626ZM12.4169 23.3889L12.6307 23.4009C12.8044 23.4072 12.9195 23.3386 12.9345 23.0835C12.9429 22.8386 12.8503 22.7971 12.6253 22.7873L12.4558 22.7815" fill="#0060AF"/>
<path d="M68.8574 4.89125L65.6499 10.7129C64.4393 9.72986 62.961 9.00628 61.0748 9.00628C56.6112 9.00628 54.7982 12.3335 54.7982 14.6772C54.7982 16.4169 55.9373 18.9838 59.9089 18.9838C61.5759 18.9838 63.9459 17.824 64.628 17.2964L61.4557 24.0504C59.9436 24.3521 59.4469 24.5392 58.1669 24.5788C51.0584 24.7909 48.1859 20.4241 48.188 15.9619C48.1927 10.0632 53.4373 2.88929 62.1314 2.88929C62.6642 2.88929 63.3158 3.07352 63.873 3.27768L64.436 2.55762" fill="#0060AF"/>
<path d="M82.0923 2.74121L83.0006 23.9005H76.2411L76.2371 20.2716H71.628L70.111 23.9005H62.7803L70.4443 8.79095L68.7161 8.7797L71.9997 2.74121H82.0923ZM76.1933 9.21426L73.5873 15.3688H76.2718" fill="#0060AF"/>
<path d="M43.9212 2.74173C47.2686 2.76048 49.1602 4.57751 49.1602 7.20227C49.1602 9.62193 47.1652 11.7638 44.9753 12.8713C47.2299 13.7001 47.425 15.7347 47.425 17.1741C47.425 20.6516 43.9355 23.901 39.3997 23.901H29.5078L33.3664 9.00195L31.7814 8.99281L35.0215 2.74173C35.0215 2.74173 41.1992 2.72298 43.9212 2.74173ZM40.6371 11.3206C41.3295 11.3206 42.5521 11.1453 42.8578 9.80521C43.1927 8.35057 42.0454 8.31142 41.495 8.31142L39.5284 8.30281L38.8426 11.3206L40.6371 11.3206ZM37.8567 15.0597L36.9513 18.5371H39.2668C40.1779 18.5371 41.4195 18.085 41.7238 16.9533C42.0243 15.8184 41.1563 15.0597 40.2485 15.0597" fill="#0060AF"/>
</svg>
