<svg width="89" height="27" viewBox="0 0 89 27" fill="none" xmlns="http://www.w3.org/2000/svg">
<path fill-rule="evenodd" clip-rule="evenodd" d="M0.0585938 9.54395L7.56191 19.0091L0.0585938 25.2267V9.54395Z" fill="#F15A23"/>
<path fill-rule="evenodd" clip-rule="evenodd" d="M3.0791 25.227L8.72497 20.5039L12.6273 25.227H3.0791Z" fill="#F15A23"/>
<path fill-rule="evenodd" clip-rule="evenodd" d="M0.0585938 4.48015L2.01668 6.95705L10.0676 17.0173L12.6764 14.9399C12.6764 14.9399 10.5106 12.3901 9.0564 9.54483C6.21323 3.98199 8.22613 0.518555 8.22613 0.518555H0.0585938V4.48015Z" fill="#F15A23"/>
<path fill-rule="evenodd" clip-rule="evenodd" d="M11.2153 18.5695L13.8722 16.375C13.8722 16.375 16.4097 19.7153 19.352 20.5037C23.2077 21.5368 24.9149 19.0092 24.9149 19.0092V25.2267H16.4461L18.3557 23.5757C18.3557 23.5757 17.3594 24.2399 14.9226 22.5521C13.4845 21.5559 11.2153 18.5695 11.2153 18.5695Z" fill="#F15A23"/>
<path fill-rule="evenodd" clip-rule="evenodd" d="M11.4591 0.5C11.4591 0.5 10.6115 1.65462 11.2148 4.47972C11.8597 7.49935 14.4243 10.6953 14.4184 10.6238C14.4184 10.6238 14.5833 7.45032 16.4455 5.58804C20.415 1.61856 24.9144 3.98155 24.9144 3.98155V0.518117L11.4591 0.5Z" fill="#F15A23"/>
<path fill-rule="evenodd" clip-rule="evenodd" d="M24.9142 8.16679C24.9142 8.16679 22.404 6.0166 20.2215 6.0166C17.4297 6.0166 15.9058 8.4269 15.9058 10.1753C15.9058 12.722 17.1281 14.1371 18.3551 15.364C20.1182 17.1272 22.2633 19.0288 24.9142 17.4982C24.9142 14.6015 24.9142 8.16679 24.9142 8.16679Z" fill="#F15A23"/>
<path fill-rule="evenodd" clip-rule="evenodd" d="M53.5039 0.758789H59.4276C59.4276 0.758789 64.6752 8.70444 67.2542 11.9873C69.8331 15.2701 72.6091 19.0093 72.6091 19.0093C72.6091 19.0093 72.6091 8.16595 72.6091 2.53821C72.6091 1.82684 70.7413 0.758789 70.7413 0.758789H77.5722C77.5722 0.758789 75.3308 1.67966 75.3308 2.53821C75.3308 9.54414 75.3308 26.4997 75.3308 26.4997C75.3308 26.4997 73.1801 25.3071 70.7413 22.4732C68.0011 19.2891 58.2535 6.43396 58.2535 6.43396C58.2535 6.43396 58.2535 18.5697 58.2535 23.0843C58.2535 23.937 60.1213 25.2269 60.1213 25.2269H53.5039C53.5039 25.2269 55.3184 23.9266 55.3184 23.0843C55.3184 17.0166 55.3184 8.16595 55.3184 2.53821C55.3184 1.78207 53.5039 0.758789 53.5039 0.758789Z" fill="#005E6A"/>
<path fill-rule="evenodd" clip-rule="evenodd" d="M81.3979 0.758789H89.0006C89.0006 0.758789 86.9592 1.72578 86.9592 2.53821C86.9592 8.16595 86.9592 17.4974 86.9592 23.0843C86.9592 23.9721 89.0006 25.2269 89.0006 25.2269H81.3979C81.3979 25.2269 83.2986 23.9435 83.2986 23.0843C83.2986 16.3751 83.2986 8.16595 83.2986 2.53821C83.2986 1.75712 81.3979 0.758789 81.3979 0.758789Z" fill="#005E6A"/>
<path fill-rule="evenodd" clip-rule="evenodd" d="M31.1362 0.758789C31.1362 0.758789 33.1073 1.74158 33.1073 2.53821C33.1073 8.16595 33.1073 16.3751 33.1073 23.0843C33.1073 23.9577 31.1362 25.2269 31.1362 25.2269C31.1362 25.2269 40.9831 25.2269 42.3994 25.2269C43.1033 25.2269 50.9876 23.9376 50.9876 17.8592C50.9876 11.7808 44.8632 11.2117 44.8632 11.2117C44.8632 11.2117 48.5941 10.1745 48.5941 6.01576C48.5941 1.53313 43.1033 0.758789 42.3994 0.758789C40.9365 0.758789 31.1362 0.758789 31.1362 0.758789ZM37.1198 10.8089V3.15939C37.1198 3.15939 40.3846 3.15939 41.6955 3.15939C42.3994 3.15939 44.8632 3.9813 44.8632 7.03069C44.8632 9.54414 42.3994 10.8089 41.6955 10.8089C40.0995 10.8089 37.1198 10.8089 37.1198 10.8089ZM37.1198 12.8151C37.1198 12.8151 41.6955 12.8151 42.3994 12.8151C43.1033 12.8151 47.2566 13.8939 47.2566 17.4974C47.2566 21.1713 43.1033 22.4732 42.3994 22.4732C41.6955 22.4732 37.1198 22.4732 37.1198 22.4732V12.8151Z" fill="#005E6A"/>
</svg>
