<svg width="119" height="50" viewBox="0 0 119 50" fill="none" xmlns="http://www.w3.org/2000/svg">
<path d="M26.3008 10.5625V39H19.9531L9.21094 20.6211V39H2.84375V10.5625H9.21094L19.9727 28.9414V10.5625H26.3008ZM44.0156 17.8672H49.5625V38.2383C49.5625 40.1784 49.1198 41.8255 48.2344 43.1797C47.362 44.5339 46.1445 45.5625 44.582 46.2656C43.0195 46.9688 41.1901 47.3203 39.0938 47.3203C38.1823 47.3203 37.2318 47.1966 36.2422 46.9492C35.2526 46.7148 34.3216 46.3568 33.4492 45.875C32.5768 45.4062 31.8477 44.8073 31.2617 44.0781L33.8594 40.4844C34.4583 41.1615 35.1745 41.7083 36.0078 42.125C36.8411 42.5547 37.7917 42.7695 38.8594 42.7695C39.8359 42.7695 40.6628 42.5938 41.3398 42.2422C42.0169 41.8906 42.5312 41.3763 42.8828 40.6992C43.2474 40.0221 43.4297 39.2018 43.4297 38.2383V22.8086L44.0156 17.8672ZM29.8945 28.6875V28.2773C29.8945 26.6758 30.0898 25.2174 30.4805 23.9023C30.8711 22.5742 31.4375 21.4349 32.1797 20.4844C32.9349 19.5208 33.8398 18.7786 34.8945 18.2578C35.9622 17.737 37.1602 17.4766 38.4883 17.4766C39.9206 17.4766 41.1055 17.75 42.043 18.2969C42.9805 18.8307 43.7422 19.5859 44.3281 20.5625C44.9141 21.526 45.3763 22.6654 45.7148 23.9805C46.0534 25.2826 46.3268 26.6953 46.5352 28.2188V28.9219C46.3268 30.3802 46.0273 31.7409 45.6367 33.0039C45.2461 34.2669 44.7383 35.3802 44.1133 36.3438C43.4883 37.2943 42.707 38.043 41.7695 38.5898C40.8451 39.1237 39.7383 39.3906 38.4492 39.3906C37.1341 39.3906 35.9492 39.1237 34.8945 38.5898C33.8398 38.056 32.9349 37.3073 32.1797 36.3438C31.4375 35.3802 30.8711 34.2474 30.4805 32.9453C30.0898 31.6432 29.8945 30.224 29.8945 28.6875ZM35.9883 28.2773V28.6875C35.9883 29.5208 36.0664 30.2956 36.2227 31.0117C36.3919 31.7279 36.6393 32.3594 36.9648 32.9062C37.3034 33.4531 37.7201 33.8828 38.2148 34.1953C38.7227 34.4948 39.3151 34.6445 39.9922 34.6445C40.9818 34.6445 41.7826 34.4362 42.3945 34.0195C43.0195 33.5898 43.4753 32.9974 43.7617 32.2422C44.0612 31.487 44.2174 30.6081 44.2305 29.6055V27.5547C44.2305 26.7214 44.1458 25.9727 43.9766 25.3086C43.8073 24.6445 43.5534 24.0846 43.2148 23.6289C42.8893 23.1732 42.4596 22.8281 41.9258 22.5938C41.4049 22.3464 40.7734 22.2227 40.0312 22.2227C39.3672 22.2227 38.7812 22.3789 38.2734 22.6914C37.7656 22.9909 37.3424 23.4141 37.0039 23.9609C36.6654 24.5078 36.4115 25.1523 36.2422 25.8945C36.0729 26.6237 35.9883 27.418 35.9883 28.2773ZM52.7461 28.6484V28.2383C52.7461 26.6888 52.9674 25.263 53.4102 23.9609C53.8529 22.6458 54.5039 21.5065 55.3633 20.543C56.2227 19.5794 57.2773 18.8307 58.5273 18.2969C59.7773 17.75 61.2096 17.4766 62.8242 17.4766C64.4648 17.4766 65.9102 17.75 67.1602 18.2969C68.4232 18.8307 69.4844 19.5794 70.3438 20.543C71.2031 21.5065 71.8542 22.6458 72.2969 23.9609C72.7396 25.263 72.9609 26.6888 72.9609 28.2383V28.6484C72.9609 30.1849 72.7396 31.6107 72.2969 32.9258C71.8542 34.2279 71.2031 35.3672 70.3438 36.3438C69.4844 37.3073 68.4297 38.056 67.1797 38.5898C65.9297 39.1237 64.4909 39.3906 62.8633 39.3906C61.2487 39.3906 59.8099 39.1237 58.5469 38.5898C57.2839 38.056 56.2227 37.3073 55.3633 36.3438C54.5039 35.3672 53.8529 34.2279 53.4102 32.9258C52.9674 31.6107 52.7461 30.1849 52.7461 28.6484ZM58.8594 28.2383V28.6484C58.8594 29.4818 58.9245 30.263 59.0547 30.9922C59.1979 31.7214 59.4258 32.3594 59.7383 32.9062C60.0508 33.4531 60.4609 33.8828 60.9688 34.1953C61.4896 34.4948 62.1211 34.6445 62.8633 34.6445C63.6055 34.6445 64.2305 34.4948 64.7383 34.1953C65.2461 33.8828 65.6562 33.4531 65.9688 32.9062C66.2812 32.3594 66.5026 31.7214 66.6328 30.9922C66.776 30.263 66.8477 29.4818 66.8477 28.6484V28.2383C66.8477 27.418 66.776 26.6497 66.6328 25.9336C66.5026 25.2044 66.2812 24.5599 65.9688 24C65.6562 23.4401 65.2396 23.0039 64.7188 22.6914C64.2109 22.3789 63.5794 22.2227 62.8242 22.2227C62.0951 22.2227 61.4766 22.3789 60.9688 22.6914C60.4609 23.0039 60.0508 23.4401 59.7383 24C59.4258 24.5599 59.1979 25.2044 59.0547 25.9336C58.9245 26.6497 58.8594 27.418 58.8594 28.2383ZM88.4688 34.2734V9H94.6016V39H89.0938L88.4688 34.2734ZM75.3047 28.6875V28.2773C75.3047 26.6758 75.4805 25.2174 75.832 23.9023C76.1966 22.5742 76.724 21.4349 77.4141 20.4844C78.1172 19.5208 78.9831 18.7786 80.0117 18.2578C81.0404 17.737 82.2188 17.4766 83.5469 17.4766C84.7708 17.4766 85.8385 17.75 86.75 18.2969C87.6615 18.8307 88.4362 19.5859 89.0742 20.5625C89.7253 21.526 90.2526 22.6654 90.6562 23.9805C91.0599 25.2826 91.3659 26.6953 91.5742 28.2188V28.9219C91.3789 30.3802 91.0729 31.7409 90.6562 33.0039C90.2526 34.2669 89.7253 35.3802 89.0742 36.3438C88.4362 37.2943 87.6549 38.043 86.7305 38.5898C85.819 39.1237 84.7448 39.3906 83.5078 39.3906C82.1797 39.3906 81.0013 39.1237 79.9727 38.5898C78.957 38.056 78.1042 37.3073 77.4141 36.3438C76.724 35.3802 76.1966 34.2474 75.832 32.9453C75.4805 31.6432 75.3047 30.224 75.3047 28.6875ZM81.3984 28.2773V28.6875C81.3984 29.5208 81.457 30.2956 81.5742 31.0117C81.7044 31.7279 81.9128 32.3594 82.1992 32.9062C82.4857 33.4531 82.8633 33.8828 83.332 34.1953C83.8008 34.4948 84.3737 34.6445 85.0508 34.6445C85.9622 34.6445 86.7109 34.4362 87.2969 34.0195C87.8828 33.5898 88.3255 32.9974 88.625 32.2422C88.9245 31.487 89.0807 30.6081 89.0938 29.6055V27.5547C89.0938 26.7214 89.0091 25.9727 88.8398 25.3086C88.6706 24.6445 88.4167 24.0846 88.0781 23.6289C87.7526 23.1732 87.3424 22.8281 86.8477 22.5938C86.3529 22.3464 85.7669 22.2227 85.0898 22.2227C84.4258 22.2227 83.8594 22.3789 83.3906 22.6914C82.9219 22.9909 82.5378 23.4141 82.2383 23.9609C81.9518 24.5078 81.737 25.1523 81.5938 25.8945C81.4635 26.6237 81.3984 27.418 81.3984 28.2773Z" fill="#994D1C"/>
<path d="M113.548 29.6545C114.284 29.9852 114.739 30.6495 114.915 31.6475C115.086 32.6191 114.978 33.4641 114.59 34.1824C114.203 34.9006 113.639 35.5416 112.899 36.1053C111.371 37.2683 109.701 38.0096 107.889 38.3291C106.077 38.6486 104.598 38.7063 103.451 38.5023C102.331 38.2936 101.352 37.8841 100.513 37.2738C98.8761 36.1273 97.8329 34.2804 97.3837 31.7331C96.6845 27.7676 97.1986 24.3869 98.926 21.5912C100.779 18.5838 103.714 16.7258 107.732 16.0174C110.227 15.5774 112.184 15.7739 113.603 16.6067C114.662 17.2325 115.304 18.1888 115.531 19.4756C116.346 24.0976 112.762 27.1125 104.778 28.5202C104.793 29.2215 104.852 29.8611 104.954 30.4388C105.167 31.6469 105.578 32.4409 106.186 32.821C106.817 33.1702 107.631 33.2569 108.629 33.0809C109.627 32.9049 110.611 32.5011 111.583 31.8694C112.576 31.2069 113.232 30.4686 113.548 29.6545ZM104.755 26.7777C106.62 26.449 107.989 25.6119 108.862 24.2665C109.744 22.9737 110.03 21.4475 109.719 19.688C109.613 19.084 109.414 18.6452 109.122 18.3718C108.852 18.0674 108.493 17.9546 108.047 18.0333C107.6 18.112 107.196 18.278 106.835 18.5313C106.495 18.7537 106.179 19.1885 105.887 19.8357C105.147 21.3202 104.77 23.6342 104.755 26.7777Z" fill="#994D1C"/>
</svg>
