<svg width="69" height="27" viewBox="0 0 69 27" fill="none" xmlns="http://www.w3.org/2000/svg">
<path d="M22.3172 0.5H4.26848C2.07999 0.5 0.304199 2.31866 0.304199 4.565V22.4345C0.304199 24.6602 2.04487 26.4675 4.20908 26.4995L22.3043 26.5C24.4928 26.5 26.2727 24.6808 26.2727 22.4345L26.2815 4.565C26.2815 2.31866 24.5052 0.5 22.3172 0.5ZM6.41358 24.4169L5.42858 24.4288C4.23594 24.4288 3.27315 23.4469 3.27315 22.2403L3.26592 22.0662V5.56446L3.27315 4.67502C3.32119 3.50769 4.20701 2.56453 5.36918 2.56453H7.36966C9.18625 2.56453 10.6552 4.14249 10.6552 6.00092C10.6552 6.92394 10.2937 7.75709 9.70897 8.36606L4.60422 13.5436L9.3908 18.4196C10.0055 19.057 10.3773 19.8932 10.3773 20.8069C10.3773 22.8002 8.6062 24.4169 6.41358 24.4169ZM21.1292 24.4019L12.2043 24.3993C12.2043 24.3993 13.2363 22.1669 13.2363 20.7873C13.2363 19.105 12.6738 17.5993 11.7931 16.6056L8.74205 13.493L11.8536 10.2772C12.7848 9.4022 13.3995 7.85419 13.3995 6.09338C13.3995 4.69826 13.0142 3.46223 12.3902 2.56453H14.5539C16.369 2.56453 17.8395 4.14249 17.8395 6.00092C17.8395 6.92394 17.4795 7.75709 16.8963 8.36606L11.8861 13.491L22.2888 24.0997C21.9572 24.3074 21.5429 24.4019 21.1292 24.4019ZM23.3063 21.0884L15.8504 13.4894L19.4009 9.88204C20.1246 8.97555 20.5853 7.61453 20.5853 6.09338C20.5853 4.69 20.1927 3.42143 19.5662 2.52423L21.1535 2.57382C22.3441 2.57382 23.3125 3.55263 23.3125 4.76283L23.3063 21.0884Z" fill="#00529C"/>
<path d="M42.2795 12.2787C42.4247 12.1335 42.5961 11.9465 42.794 11.7177C42.9913 11.4889 43.1783 11.2188 43.3549 10.9068C43.5316 10.5948 43.6824 10.2472 43.8069 9.86238C43.9319 9.47809 43.9944 9.06745 43.9944 8.631C43.9944 7.77926 43.8487 6.98433 43.5579 6.24623C43.2666 5.50864 42.8198 4.86403 42.217 4.3129C41.6142 3.76281 40.8612 3.331 39.9567 3.01902C39.0528 2.70756 37.9976 2.55157 36.7925 2.55157H36.7595H33.2947H32.3928H28.8423V6.52567V20.2837V24.375H37.572C38.8395 24.375 39.9459 24.2035 40.8921 23.8605C41.8374 23.5176 42.6225 23.045 43.2459 22.4422C43.8694 21.8394 44.3316 21.138 44.6333 20.3379C44.9344 19.5378 45.0852 18.6804 45.0852 17.7656C45.0852 16.5394 44.8048 15.4485 44.2438 14.4919C43.6824 13.5364 43.0274 12.7983 42.2795 12.2787ZM38.4196 6.55046C38.7135 6.66254 38.9588 6.8082 39.1504 6.99157C39.6468 7.4678 39.8953 8.037 39.8953 8.69918C39.8953 9.29989 39.7914 9.79626 39.5848 10.1893C39.3777 10.5829 39.1706 10.883 38.964 11.0896H32.8954V6.29272H36.6675C37.3747 6.29272 37.9568 6.38001 38.4196 6.55046ZM37.7899 14.8664C38.8886 14.8664 39.7026 15.151 40.2325 15.7192C40.731 16.2786 40.982 16.9387 40.982 17.7026C40.982 18.4898 40.6974 19.1618 40.1282 19.7207C39.5585 20.2795 38.6226 20.5595 37.3184 20.5595H36.8313H32.8954V14.8664H37.7899Z" fill="#00529C"/>
<path d="M59.8865 14.9754C60.5409 14.5286 61.0869 14.009 61.5233 13.4165C61.9598 12.8241 62.2816 12.1697 62.4897 11.4527C62.6974 10.7353 62.8017 10.0029 62.8017 9.25443C62.8017 8.2777 62.64 7.37895 62.3183 6.55769C61.9954 5.73694 61.5125 5.03035 60.8684 4.4379C60.2238 3.84545 59.4185 3.38317 58.4521 3.05053C57.4857 2.71841 56.3685 2.55157 55.1009 2.55157H54.9868H46.5897H46.5112V24.375H50.6429V16.2693H52.9465L58.6443 24.375H63.4871L57.5952 15.9888C58.4676 15.7605 59.2315 15.4227 59.8865 14.9754ZM55.1319 6.29272C55.3917 6.29272 55.6371 6.30976 55.8705 6.3392C56.6071 6.45026 57.2088 6.71316 57.6727 7.13103C58.3039 7.70075 58.6195 8.39908 58.6195 9.22654C58.6195 9.64131 58.5518 10.0447 58.4175 10.4378C58.2827 10.8314 58.0709 11.1779 57.7812 11.4775C57.4909 11.7781 57.1185 12.0209 56.6634 12.2074C56.2078 12.3938 55.6593 12.4868 55.0178 12.4868H50.6429V6.29272H55.1319Z" fill="#00529C"/>
<path d="M64.9462 2.55157V2.55777C64.9044 2.55674 64.8636 2.55157 64.8217 2.55157H64.7866V2.55312V10.5524V16.2843V24.375H68.9993V2.55157H64.9462Z" fill="#00529C"/>
</svg>
