<svg width="84" height="84" viewBox="0 0 84 84" fill="none" xmlns="http://www.w3.org/2000/svg">
<rect width="84" height="84" rx="42" fill="#EDEDED"/>
<path d="M51.9667 39.9833V46.65C51.9667 47.0833 51.95 47.5 51.9 47.9C51.5167 52.4 48.8667 54.6333 43.9834 54.6333H43.3167C42.9001 54.6333 42.5 54.8333 42.25 55.1667L40.2501 57.8333C39.3667 59.0167 37.9334 59.0167 37.05 57.8333L35.05 55.1667C34.8334 54.8833 34.35 54.6333 33.9834 54.6333H33.3167C28.0001 54.6333 25.3334 53.3167 25.3334 46.65V39.9833C25.3334 35.1 27.5834 32.45 32.0667 32.0667C32.4667 32.0167 32.8834 32 33.3167 32H43.9834C49.3 32 51.9667 34.6667 51.9667 39.9833Z" stroke="#131313" stroke-width="2.5" stroke-miterlimit="10" stroke-linecap="round" stroke-linejoin="round"/>
<path d="M58.6334 33.3164V39.983C58.6334 44.883 56.3834 47.5164 51.9001 47.8997C51.9501 47.4997 51.9668 47.083 51.9668 46.6497V39.983C51.9668 34.6664 49.3001 31.9997 43.9834 31.9997H33.3168C32.8834 31.9997 32.4668 32.0164 32.0668 32.0664C32.4501 27.583 35.1001 25.333 39.9834 25.333H50.6501C55.9668 25.333 58.6334 27.9997 58.6334 33.3164Z" stroke="#131313" stroke-width="2.5" stroke-miterlimit="10" stroke-linecap="round" stroke-linejoin="round"/>
<path d="M44.4925 44.0833H44.5075" stroke="#131313" stroke-width="3.33333" stroke-linecap="round" stroke-linejoin="round"/>
<path d="M38.6592 44.0833H38.6742" stroke="#131313" stroke-width="3.33333" stroke-linecap="round" stroke-linejoin="round"/>
<path d="M32.8258 44.0833H32.8408" stroke="#131313" stroke-width="3.33333" stroke-linecap="round" stroke-linejoin="round"/>
</svg>
