<svg width="53" height="52" viewBox="0 0 53 52" fill="none" xmlns="http://www.w3.org/2000/svg">
<rect x="1" y="0.5" width="51" height="51" rx="25.5" stroke="#F5CCA0"/>
<path d="M28.8201 33.0698C28.8201 33.6798 28.42 34.4798 27.91 34.7898L26.5001 35.6998C25.1901 36.5098 23.3701 35.5998 23.3701 33.9798V28.6298C23.3701 27.9198 22.9701 27.0098 22.5601 26.5098L18.72 22.4698C18.21 21.9598 17.8101 21.0598 17.8101 20.4498V18.1298C17.8101 16.9198 18.7201 16.0098 19.8301 16.0098H33.17C34.28 16.0098 35.1901 16.9198 35.1901 18.0298V20.2498C35.1901 21.0598 34.6801 22.0698 34.1801 22.5698" stroke="#131313" stroke-width="1.5" stroke-miterlimit="10" stroke-linecap="round" stroke-linejoin="round"/>
<path d="M30.57 30.5201C32.3373 30.5201 33.77 29.0874 33.77 27.3201C33.77 25.5528 32.3373 24.1201 30.57 24.1201C28.8027 24.1201 27.37 25.5528 27.37 27.3201C27.37 29.0874 28.8027 30.5201 30.57 30.5201Z" stroke="#131313" stroke-width="1.5" stroke-linecap="round" stroke-linejoin="round"/>
<path d="M34.37 31.1201L33.37 30.1201" stroke="#131313" stroke-width="1.5" stroke-linecap="round" stroke-linejoin="round"/>
</svg>
