<svg width="17" height="16" viewBox="0 0 17 16" fill="none" xmlns="http://www.w3.org/2000/svg">
<path d="M15.5007 8.15546C15.5007 7.57991 15.453 7.15991 15.3499 6.72437H8.64355V9.32211H12.58C12.5007 9.96769 12.0721 10.9399 11.1197 11.5932L11.1064 11.6802L13.2268 13.29L13.3737 13.3044C14.7229 12.0832 15.5007 10.2866 15.5007 8.15546Z" fill="#1478FC"/>
<path d="M8.64315 14.9999C10.5717 14.9999 12.1907 14.3776 13.3733 13.3043L11.1193 11.5931C10.5162 12.0054 9.70662 12.2932 8.64315 12.2932C6.75428 12.2932 5.15113 11.0721 4.57965 9.38428L4.49588 9.39125L2.29104 11.0635L2.26221 11.142C3.43679 13.4287 5.84949 14.9999 8.64315 14.9999Z" fill="#58E03A"/>
<path d="M4.58006 9.38448C4.42927 8.94893 4.34201 8.48223 4.34201 8.00003C4.34201 7.51778 4.42927 7.05113 4.57213 6.61558L4.56814 6.52282L2.33566 4.82373L2.26262 4.85778C1.77851 5.80668 1.50073 6.87226 1.50073 8.00003C1.50073 9.1278 1.77851 10.1933 2.26262 11.1422L4.58006 9.38448Z" fill="#F7C500"/>
<path d="M8.64319 3.70665C9.98444 3.70665 10.8892 4.27442 11.4051 4.7489L13.4209 2.82C12.1829 1.69223 10.5717 1 8.64319 1C5.84951 1 3.4368 2.5711 2.26221 4.85775L4.57173 6.61555C5.15114 4.92777 6.75431 3.70665 8.64319 3.70665Z" fill="#F94D18"/>
</svg>
