<svg width="87" height="27" viewBox="0 0 87 27" fill="none" xmlns="http://www.w3.org/2000/svg">
<path fill-rule="evenodd" clip-rule="evenodd" d="M64.2499 1.46632C62.5896 2.45941 58.6734 4.77943 57.2114 5.64339C56.3205 6.11223 54.2569 6.31695 53.0898 4.69139C53.0688 4.66204 51.5374 2.68549 51.4749 2.61107C51.431 2.55848 50.4409 1.04162 48.2348 0.994196C47.9089 0.986213 46.2883 0.977292 44.7071 1.90558C42.6053 3.14588 37.7172 6.03241 37.7172 6.03241C37.7172 6.03241 37.7158 6.03499 37.7133 6.03499C35.7041 7.22247 34.1385 8.147 34.1385 8.147L35.9882 10.4936C36.8535 11.6033 38.8048 12.4619 40.497 11.4585C40.497 11.4585 46.7495 7.71854 46.7724 7.70774C49.4765 6.17585 51.563 6.17585 52.9479 6.74588C54.191 7.28844 55.2724 8.64026 55.2724 8.64026C55.2724 8.64026 56.6857 10.4494 56.9351 10.7659C57.7392 11.7883 59.0702 11.3866 59.0702 11.3866C59.0702 11.3866 59.5634 11.3289 60.3069 10.8729C60.3069 10.8729 66.3633 7.24571 66.3671 7.24454C68.2902 6.07913 70.054 5.86149 70.9555 5.94719C73.7789 6.21224 74.656 8.2496 75.8801 9.67091C76.6011 10.5069 77.2516 10.9816 78.2465 10.9577C78.9002 10.9434 79.6386 10.5339 79.7475 10.46L86.9999 6.13688C86.9999 6.13688 86.2557 4.97922 84.7318 3.17805C83.3678 1.57103 81.919 2.29812 80.7639 2.88904C80.2787 3.13696 78.5204 4.3451 76.7784 5.18793C75.5372 5.78824 73.7543 5.60771 72.7772 4.36059C72.7188 4.28476 71.138 2.30798 70.9718 2.06476C70.3338 1.2393 69.0889 0.5 67.4936 0.5C66.5235 0.5 65.4228 0.773275 64.2499 1.46632Z" fill="url(#paint0_linear_1671_20872)"/>
<path fill-rule="evenodd" clip-rule="evenodd" d="M0.83994 18.3682C0.83994 17.0774 0.817211 15.9941 0.749023 15.0283H3.11466L3.22558 16.6877H3.29195C3.82813 15.8108 4.80866 14.7738 6.63766 14.7738C8.06527 14.7738 9.18036 15.6051 9.64789 16.8487H9.69381C10.0736 16.2268 10.5182 15.7664 11.0307 15.4427C11.6335 15.0055 12.3251 14.7738 13.2173 14.7738C15.0233 14.7738 16.851 16.0406 16.851 19.635V26.2459H14.1751V20.0503C14.1751 18.1846 13.5516 17.0774 12.2365 17.0774C11.2983 17.0774 10.6062 17.7697 10.3182 18.5764C10.2504 18.852 10.1836 19.1978 10.1836 19.5181V26.2459H7.50682V19.7498C7.50682 18.1846 6.90564 17.0774 5.63417 17.0774C4.60819 17.0774 3.91768 17.908 3.67175 18.6896C3.55947 18.9678 3.51447 19.2894 3.51447 19.6113V26.2459H0.83994V18.3682Z" fill="#003A70"/>
<path fill-rule="evenodd" clip-rule="evenodd" d="M27.2767 23.5515C27.2767 24.5645 27.3213 25.5534 27.4329 26.2464H24.9565L24.7788 25.0028H24.7111C24.0424 25.879 22.905 26.5 21.5001 26.5C19.3141 26.5 18.0881 24.8657 18.0881 23.1601C18.0881 20.3257 20.518 18.8988 24.5326 18.9215V18.7365C24.5326 17.9991 24.2424 16.779 22.3247 16.779C21.2538 16.779 20.1382 17.1248 19.4027 17.6078L18.8668 15.7664C19.6711 15.2586 21.0774 14.7743 22.7932 14.7743C26.2737 14.7743 27.2767 17.0563 27.2767 19.497V23.5515ZM24.5995 20.7645C22.6596 20.718 20.809 21.1556 20.809 22.8606C20.809 23.9652 21.5001 24.473 22.3702 24.473C23.4617 24.473 24.2658 23.7355 24.5104 22.9296C24.5767 22.7223 24.5995 22.491 24.5995 22.3074V20.7645Z" fill="#003A70"/>
<path fill-rule="evenodd" clip-rule="evenodd" d="M29.1732 18.3682C29.1732 17.0774 29.1486 15.9941 29.0836 15.0283H31.4902L31.6247 16.7097H31.6907C32.1596 15.8354 33.3415 14.7738 35.1475 14.7738C37.0438 14.7738 39.0062 16.0406 39.0062 19.589V26.2459H36.2635V19.9123C36.2635 18.2987 35.6837 17.0774 34.1893 17.0774C33.0965 17.0774 32.3384 17.8838 32.0477 18.7365C31.96 18.9905 31.9368 19.3368 31.9368 19.6571V26.2459H29.1732V18.3682Z" fill="#003A70"/>
<path fill-rule="evenodd" clip-rule="evenodd" d="M50.8991 10.5209V23.0895C50.8991 24.241 50.9429 25.4872 50.9877 26.2464H48.5343L48.4246 24.473H48.3791C47.732 25.7175 46.4142 26.5 44.8325 26.5C42.2466 26.5 40.1941 24.2199 40.1941 20.7645C40.1714 17.0093 42.4461 14.7743 45.0552 14.7743C46.549 14.7743 47.6204 15.4202 48.1102 16.2501H48.1554V10.5209H50.8991ZM48.1554 19.7031C48.1554 19.4752 48.1325 19.1974 48.0895 18.9678C47.8438 17.862 46.9735 16.9631 45.7246 16.9631C43.9628 16.9631 42.9814 18.5765 42.9814 20.6727C42.9814 22.7223 43.9629 24.2199 45.7023 24.2199C46.8169 24.2199 47.7988 23.4369 48.0661 22.2164C48.1325 21.9619 48.1554 21.6858 48.1554 21.3853V19.7031Z" fill="#003A70"/>
<path fill-rule="evenodd" clip-rule="evenodd" d="M52.8373 26.2458H55.6055V15.0289H52.8373V26.2458Z" fill="#003A70"/>
<path fill-rule="evenodd" clip-rule="evenodd" d="M57.544 18.6444C57.544 17.1248 57.5208 16.0406 57.4542 15.028H59.841L59.9282 17.1696H60.0208C60.5551 15.5802 61.8266 15.028 62.9858 15.028C63.2528 15.028 63.4087 14.9808 63.6324 15.028V17.5166C63.4087 17.4706 63.164 17.4246 62.8294 17.4246C61.5138 17.4246 60.621 18.2991 60.376 19.5652C60.3326 19.8188 60.2876 20.1195 60.2876 20.4435V26.2464H57.544V18.6444Z" fill="#003A70"/>
<path fill-rule="evenodd" clip-rule="evenodd" d="M64.9037 26.2458H67.6677V15.0289H64.9037V26.2458Z" fill="#003A70"/>
<defs>
<linearGradient id="paint0_linear_1671_20872" x1="0.749023" y1="26.5" x2="86.9999" y2="26.5" gradientUnits="userSpaceOnUse">
<stop stop-color="#FFCA06"/>
<stop offset="0.330844" stop-color="#FBAA18"/>
<stop offset="0.694742" stop-color="#FFC907"/>
<stop offset="1" stop-color="#FAA619"/>
</linearGradient>
</defs>
</svg>
