<svg width="52" height="52" viewBox="0 0 52 52" fill="none" xmlns="http://www.w3.org/2000/svg">
<rect x="0.5" y="0.5" width="51" height="51" rx="25.5" stroke="#F5CCA0"/>
<path d="M26.02 16.9099C22.71 16.9099 20.02 19.5999 20.02 22.9099V25.7999C20.02 26.4099 19.76 27.3399 19.45 27.8599L18.3 29.7699C17.59 30.9499 18.08 32.2599 19.38 32.6999C23.69 34.1399 28.34 34.1399 32.65 32.6999C33.86 32.2999 34.39 30.8699 33.73 29.7699L32.58 27.8599C32.28 27.3399 32.02 26.4099 32.02 25.7999V22.9099C32.02 19.6099 29.32 16.9099 26.02 16.9099Z" stroke="#131313" stroke-width="1.5" stroke-miterlimit="10" stroke-linecap="round"/>
<path d="M27.87 17.1999C27.56 17.1099 27.24 17.0399 26.91 16.9999C25.95 16.8799 25.03 16.9499 24.17 17.1999C24.46 16.4599 25.18 15.9399 26.02 15.9399C26.86 15.9399 27.58 16.4599 27.87 17.1999Z" stroke="#131313" stroke-width="1.5" stroke-miterlimit="10" stroke-linecap="round" stroke-linejoin="round"/>
<path d="M29.02 33.0601C29.02 34.7101 27.67 36.0601 26.02 36.0601C25.2 36.0601 24.44 35.7201 23.9 35.1801C23.36 34.6401 23.02 33.8801 23.02 33.0601" stroke="#131313" stroke-width="1.5" stroke-miterlimit="10"/>
</svg>
