<svg width="20" height="21" viewBox="0 0 20 21" fill="none" xmlns="http://www.w3.org/2000/svg">
<path d="M11.4416 3.4252L12.9083 6.35853C13.1083 6.76686 13.6416 7.15853 14.0916 7.23353L16.75 7.6752C18.45 7.95853 18.85 9.19186 17.625 10.4085L15.5583 12.4752C15.2083 12.8252 15.0166 13.5002 15.125 13.9835L15.7166 16.5419C16.1833 18.5669 15.1083 19.3502 13.3166 18.2919L10.825 16.8169C10.375 16.5502 9.63331 16.5502 9.17498 16.8169L6.68331 18.2919C4.89998 19.3502 3.81664 18.5585 4.28331 16.5419L4.87498 13.9835C4.98331 13.5002 4.79164 12.8252 4.44164 12.4752L2.37498 10.4085C1.15831 9.19186 1.54998 7.95853 3.24998 7.6752L5.90831 7.23353C6.34998 7.15853 6.88331 6.76686 7.08331 6.35853L8.54998 3.4252C9.34998 1.83353 10.65 1.83353 11.4416 3.4252Z" fill="#FFC107"/>
</svg>
